<?xml version="1.0" standalone="no"?>
<!DOCTYPE svg PUBLIC "-//W3C//DTD SVG 20010904//EN"
 "http://www.w3.org/TR/2001/REC-SVG-20010904/DTD/svg10.dtd">
<svg version="1.0" xmlns="http://www.w3.org/2000/svg"
 width="512.000000pt" height="512.000000pt" viewBox="0 0 512.000000 512.000000"
 preserveAspectRatio="xMidYMid meet">

<g transform="translate(0.000000,512.000000) scale(0.100000,-0.100000)"
fill="#000000" stroke="none">
<path d="M1251 4899 c-172 -20 -371 -95 -521 -194 -277 -184 -471 -507 -510
-850 -13 -122 -13 -2468 0 -2590 64 -560 498 -988 1060 -1046 71 -7 511 -9
1355 -6 1364 4 1288 0 1470 62 435 146 746 536 795 995 13 128 13 2452 0 2580
-55 516 -421 919 -944 1038 -63 14 -219 16 -1351 18 -704 1 -1313 -2 -1354 -7z
m2661 -223 c356 -69 634 -322 745 -681 l28 -90 0 -1345 0 -1345 -28 -90 c-102
-327 -335 -560 -662 -662 l-90 -28 -1345 0 -1345 0 -86 27 c-48 15 -111 38
-141 51 -206 91 -408 302 -488 509 -70 182 -64 55 -68 1493 -2 957 0 1320 9
1375 60 386 370 707 759 785 100 20 2607 21 2712 1z"/>
<path d="M1352 4469 c-176 -30 -320 -107 -457 -244 -141 -141 -215 -281 -244
-465 -15 -90 -15 -2310 0 -2400 29 -184 103 -324 244 -465 141 -141 281 -215
465 -244 90 -15 2310 -15 2400 0 184 29 324 103 465 244 141 141 215 281 244
465 15 89 15 2310 0 2400 -26 165 -105 324 -223 447 -118 125 -229 193 -398
245 l-73 23 -1185 1 c-666 1 -1208 -2 -1238 -7z m2438 -222 c181 -55 333 -181
408 -338 71 -149 67 -72 67 -1349 0 -1278 4 -1200 -67 -1349 -57 -120 -169
-232 -289 -289 -149 -71 -71 -67 -1349 -67 -934 0 -1166 3 -1210 13 -179 44
-352 183 -428 342 -71 150 -67 72 -67 1350 0 1278 -4 1200 67 1350 33 68 57
101 122 166 110 110 217 162 386 188 14 2 538 3 1165 2 1038 -2 1145 -3 1195
-19z"/>
<path d="M1530 4023 c-26 -23 -33 -40 -42 -98 -17 -113 -5 -331 26 -451 l26
-101 -40 -69 c-43 -74 -82 -183 -101 -282 -17 -88 -6 -278 20 -370 89 -307
348 -546 658 -605 l62 -12 -30 -46 c-41 -64 -71 -152 -77 -232 -4 -58 -8 -68
-26 -72 -233 -54 -320 -46 -404 36 -29 29 -119 170 -167 263 -44 86 -147 146
-253 146 -46 0 -58 -4 -83 -29 -66 -66 -16 -181 78 -181 16 0 36 -6 45 -13 8
-6 50 -73 94 -146 95 -161 154 -225 257 -276 106 -52 189 -63 315 -41 54 9
108 19 120 23 l22 5 0 -172 0 -172 29 -29 29 -29 472 0 472 0 29 29 29 29 0
329 c0 366 -2 381 -67 506 -20 37 -34 69 -32 70 2 2 33 9 69 16 265 52 507
256 609 513 97 243 76 534 -55 749 l-36 59 28 103 c22 83 28 129 32 252 5 188
-6 259 -48 298 -41 36 -93 36 -212 -3 -172 -55 -317 -143 -401 -242 l-40 -48
-374 0 -373 0 -78 78 c-93 93 -191 151 -346 204 -138 47 -193 50 -236 11z
m284 -265 c92 -46 163 -109 196 -173 13 -26 32 -51 43 -56 12 -7 197 -11 508
-11 549 0 510 -5 550 73 10 20 41 57 70 83 54 49 225 140 242 129 6 -4 7 -44
4 -102 -6 -89 -28 -184 -71 -298 -19 -50 -12 -73 39 -143 77 -105 125 -250
125 -380 0 -237 -141 -465 -350 -569 -141 -69 -176 -73 -645 -69 l-410 3 -73
27 c-105 38 -176 83 -252 158 -116 117 -176 250 -186 412 -10 155 38 310 131
430 46 58 48 90 11 182 -37 92 -56 185 -56 279 0 92 -7 90 124 25z m808 -1739
c99 -21 187 -91 230 -184 22 -47 23 -64 26 -302 l3 -253 -321 0 -321 0 3 253
c3 238 4 255 26 302 41 90 123 158 216 181 66 16 75 16 138 3z"/>
</g>
</svg>
