<?xml version="1.0" encoding="UTF-8"?>
<svg version="1.1" xmlns="http://www.w3.org/2000/svg" width="256" height="256">
<path d="M0 0 C84.48 0 168.96 0 256 0 C256 54.78 256 109.56 256 166 C171.52 166 87.04 166 0 166 C0 111.22 0 56.44 0 0 Z M30 16 C33.49936393 20.19923672 35.94174411 22.97418055 40.0625 26.1875 C44.19399273 29.48714855 48.13710128 32.89663391 52 36.5 C55.70817832 39.95207221 59.4850925 43.26524841 63.4375 46.4375 C68.21541338 50.28045479 72.68994984 54.36831329 77.16162109 58.55615234 C81.37429105 62.47906854 85.76413555 66.11911024 90.25390625 69.72265625 C93.26319147 72.21826547 96.13937022 74.83766805 99 77.5 C103.59639372 81.77695323 108.34880269 85.78121587 113.2421875 89.71875 C117.98349533 93.64073834 122.48701397 97.81872281 127 102 C130.44779086 100.49993609 132.82360533 98.49590738 135.5625 95.9375 C139.08042208 92.70801662 142.65182375 89.61539482 146.375 86.625 C150.92940923 82.94298465 155.23747565 79.07099643 159.52124023 75.08422852 C162.73263407 72.1131325 166.02609763 69.30053412 169.4375 66.5625 C173.62237307 63.19653735 177.58314398 59.66823983 181.5 56 C186.26091334 51.54127805 191.16467563 47.36202376 196.25390625 43.27734375 C199.79031483 40.34458955 203.14411254 37.23101546 206.50219727 34.09887695 C210.70646617 30.20298963 215.11064936 26.60386672 219.625 23.0703125 C222.47641408 20.7087975 222.47641408 20.7087975 226 16 C161.32 16 96.64 16 30 16 Z M15 26 C15 63.62 15 101.24 15 140 C19.25781036 137.16145976 22.54040666 134.73889177 26.1875 131.3125 C29.84695336 127.92997824 33.55289992 124.68365267 37.4375 121.5625 C41.97316443 117.90428985 46.2570117 114.05257035 50.51928711 110.08618164 C54.59646815 106.31447646 58.85817013 102.81966848 63.1875 99.33984375 C66.92353744 96.23166816 70.48435676 92.95200465 74.02929688 89.62890625 C76.27983796 87.52799409 78.42885331 85.71409779 81 84 C81 83.34 81 82.68 81 82 C79.46804728 80.62787699 77.87078919 79.3284554 76.25 78.0625 C72.01416328 74.67926119 67.96135911 71.19908178 64 67.5 C60.29201994 64.04772215 56.51489247 60.73473953 52.5625 57.5625 C48.37761461 54.19652744 44.41695442 50.6681492 40.5 47 C35.64041576 42.45092314 30.64711615 38.14933007 25.453125 33.98046875 C23.21814454 32.1761135 21.03973201 30.32504071 18.875 28.4375 C16.50107743 25.89221912 16.50107743 25.89221912 15 26 Z M233.5625 31.4375 C232.92723389 31.98446533 232.29196777 32.53143066 231.63745117 33.0949707 C227.98718382 36.2476628 224.38055884 39.44171745 220.8125 42.6875 C217.4991692 45.69814479 214.11058071 48.56565178 210.625 51.375 C206.61175091 54.61951406 202.7757082 57.98733097 199 61.5 C194.31363122 65.85861885 189.47766893 69.96708852 184.4921875 73.984375 C181.26926864 76.59099903 178.13219123 79.28543427 175 82 C176.24441309 85.73323926 177.72687968 86.59860164 180.8125 89 C185.02984844 92.36078478 189.05957963 95.82012988 193 99.5 C196.73259448 102.97486343 200.52378529 106.30074678 204.5 109.5 C208.47630501 112.69932587 212.26659396 116.0259333 216 119.5 C220.68708806 123.85939393 225.52249607 127.96989192 230.51171875 131.984375 C232.75627655 133.80257252 234.94780576 135.66466062 237.125 137.5625 C239.49892257 140.10778088 239.49892257 140.10778088 241 140 C241 102.38 241 64.76 241 26 C238.51512531 26 235.46892063 29.78655607 233.5625 31.4375 Z M88.625 97.9375 C85.04083823 101.20092002 81.40293889 104.33837179 77.625 107.375 C73.07139288 111.05636689 68.76417484 114.92774473 64.48095703 118.91357422 C61.24823796 121.90412641 57.93312334 124.73771685 54.5 127.5 C49.90375869 131.19957574 45.54643905 135.09080659 41.22558594 139.10302734 C38.45214655 141.67731506 35.64638231 144.18993665 32.75 146.625 C31.8425 147.40875 30.935 148.1925 30 149 C30 149.33 30 149.66 30 150 C94.68 150 159.36 150 226 150 C222.50063607 145.80076328 220.05825589 143.02581945 215.9375 139.8125 C211.80600436 136.51284912 207.86292126 133.10334499 204 129.5 C200.26717915 126.02536042 196.47623952 122.69927318 192.5 119.5 C188.52361376 116.30060877 184.73412476 112.9733669 181 109.5 C171.97748629 99.81986254 171.97748629 99.81986254 161 95 C154.84455452 99.27608133 149.32436427 104.55461149 143.8125 109.625 C143.30912109 110.08720947 142.80574219 110.54941895 142.28710938 111.02563477 C140.04686902 113.08934242 137.82679615 115.16804215 135.640625 117.2890625 C134.95484375 117.93617188 134.2690625 118.58328125 133.5625 119.25 C132.98628906 119.81203125 132.41007812 120.3740625 131.81640625 120.953125 C130 122 130 122 127.66015625 122.015625 C124.00101671 120.61859669 121.61161101 118.20364972 118.875 115.5 C117.72633865 114.40115221 116.57525992 113.30482625 115.421875 112.2109375 C114.84888672 111.66663086 114.27589844 111.12232422 113.68554688 110.56152344 C110.4147218 107.53136741 106.92842061 104.76985075 103.453125 101.98046875 C101.21814454 100.1761135 99.03973201 98.32504071 96.875 96.4375 C92.51312681 92.73939012 92.56303554 94.30382367 88.625 97.9375 Z " fill="#000000" transform="translate(0,45)"/>
</svg>
